<svg width="216" height="48" viewBox="0 0 216 48" fill="none" xmlns="http://www.w3.org/2000/svg">
<g clip-path="url(#clip0_437_7075)">
<path d="M24.0222 2.15129V4.55351C22.8171 4.26524 21.5279 4.1051 20.3028 4.1051C19.8784 4.1051 19.462 4.12512 19.0657 4.16115C11.7429 4.8658 6.00556 11.1957 6.00556 18.5665C6.00556 25.3408 11.2304 32.5995 19.0056 32.5995C19.2418 32.5995 19.478 32.5915 19.7143 32.5795C21.2557 32.4874 22.7411 32.3312 24.0262 32.127V34.9817H1.60148V2.15129H24.0222ZM25.6237 0.549805H0V36.5832H25.6237V30.1692C24.0222 30.5776 21.7041 30.8539 19.6182 30.978C19.414 30.99 19.2058 30.998 19.0056 30.998C12.4996 30.998 7.60704 24.8763 7.60704 18.5665C7.60704 12.1606 12.6797 6.38721 19.2178 5.75462C19.5701 5.72259 19.9305 5.70258 20.3028 5.70258C22.1325 5.70258 24.1303 6.09894 25.6237 6.76356V0.549805Z" fill="white"/>
<path d="M37.2345 32.8797C37.1024 32.8797 36.9703 32.8437 36.8502 32.7636C36.5259 32.5514 36.4338 32.119 36.646 31.7947C39.2204 27.8551 40.4175 23.6432 40.4175 18.5424C40.4175 13.8341 39.1083 9.24182 36.638 5.26214C36.4338 4.93383 36.5339 4.50143 36.8622 4.29724C37.1905 4.09305 37.6229 4.19315 37.8271 4.52145C40.4375 8.72134 41.8188 13.5698 41.8188 18.5424C41.8188 23.9274 40.5496 28.3835 37.8191 32.5594C37.6869 32.7676 37.4627 32.8797 37.2345 32.8797Z" fill="white"/>
<path d="M39.6367 14.362C41.5162 14.362 43.0398 12.8383 43.0398 10.9588C43.0398 9.07931 41.5162 7.55566 39.6367 7.55566C37.7572 7.55566 36.2335 9.07931 36.2335 10.9588C36.2335 12.8383 37.7572 14.362 39.6367 14.362Z" fill="#EC1C24"/>
<path d="M39.6368 15.1431C37.3306 15.1431 35.4529 13.2654 35.4529 10.9593C35.4529 8.65313 37.3306 6.77539 39.6368 6.77539C41.9429 6.77539 43.8206 8.65313 43.8206 10.9593C43.8206 13.2654 41.9429 15.1431 39.6368 15.1431ZM39.6368 7.17576C37.5508 7.17576 35.8533 8.87333 35.8533 10.9593C35.8533 13.0452 37.5508 14.7428 39.6368 14.7428C41.7227 14.7428 43.4203 13.0452 43.4203 10.9593C43.4203 8.87333 41.7227 7.17576 39.6368 7.17576Z" fill="white"/>
<path d="M39.6367 6.77537C41.9429 6.77537 43.8206 8.65311 43.8206 10.9592C43.8206 13.2654 41.9429 15.1431 39.6367 15.1431C37.3306 15.1431 35.4529 13.2654 35.4529 10.9592C35.4529 8.65311 37.3306 6.77537 39.6367 6.77537ZM39.6367 14.7427C41.7227 14.7427 43.4202 13.0452 43.4202 10.9592C43.4202 8.87331 41.7227 7.17574 39.6367 7.17574C37.5508 7.17574 35.8532 8.87331 35.8532 10.9592C35.8532 13.0452 37.5508 14.7427 39.6367 14.7427ZM39.6367 6.375C37.1104 6.375 35.0525 8.43291 35.0525 10.9592C35.0525 13.4856 37.1104 15.5435 39.6367 15.5435C42.1631 15.5435 44.221 13.4856 44.221 10.9592C44.221 8.43291 42.1631 6.375 39.6367 6.375ZM39.6367 14.3424C37.771 14.3424 36.2536 12.825 36.2536 10.9592C36.2536 9.09352 37.771 7.57611 39.6367 7.57611C41.5025 7.57611 43.0199 9.09352 43.0199 10.9592C43.0199 12.825 41.5025 14.3424 39.6367 14.3424Z" fill="white"/>
<path d="M38.0472 32.9959C39.374 32.9959 40.4495 31.9203 40.4495 30.5936C40.4495 29.2669 39.374 28.1914 38.0472 28.1914C36.7205 28.1914 35.645 29.2669 35.645 30.5936C35.645 31.9203 36.7205 32.9959 38.0472 32.9959Z" fill="white"/>
<path d="M3.40717 40.5069H0.988936V43.1173H3.08287V43.6018H0.988936V46.4644H3.52729V46.9489H0.400391V40.0225H3.47524L3.40717 40.5069Z" fill="white"/>
<path d="M3.72746 47.1531H0.200195V39.8223H3.70744L3.57932 40.7071H1.18911V42.9171H3.28305V43.802H1.18911V46.2642H3.72746V47.1531ZM0.600566 46.7527H3.32709V46.6686H0.78874V43.4056H2.88268V43.3215H0.78874V40.3067H3.23501L3.24702 40.2226H0.600566V46.7527Z" fill="white"/>
<path d="M11.1743 46.9529H10.5458L8.97631 43.5938L7.43889 46.9529H6.83032L8.63199 43.2294L7.00248 40.0225H7.63106L8.98832 42.8571L10.3456 40.0225H10.9421L9.33264 43.1974L11.1743 46.9529Z" fill="white"/>
<path d="M11.4946 47.1531H10.4177L8.98032 44.0702L7.56701 47.1531H6.51404L8.4118 43.2334L6.67819 39.8223H7.75919L8.98833 42.3926L10.2175 39.8223H11.2664L9.55686 43.2014L11.4946 47.1531ZM10.6739 46.7527H10.8541L9.10844 43.1974L10.6138 40.2226H10.4697L9.02837 43.2294L10.6739 46.7527ZM7.15063 46.7527H7.31078L8.93228 43.2094L7.50295 40.2226H7.32679L8.8522 43.2254L7.15063 46.7527Z" fill="white"/>
<path d="M15.6144 46.4244H18.0847L18.0127 46.9489H15.0299V40.0225H15.6144V46.4244Z" fill="white"/>
<path d="M18.1848 47.1531H14.8257V39.8223H15.8146V46.2282H18.3129L18.1848 47.1531ZM15.2261 46.7527H17.8365L17.8525 46.6286H15.4142V40.2226H15.2261V46.7527Z" fill="white"/>
<path d="M25.872 45.0311C25.872 46.1842 25.2234 47.065 23.8902 47.065C22.5329 47.065 21.9083 46.1842 21.9083 45.0311V40.0225H22.4969V44.9791C22.4969 45.952 22.9133 46.5565 23.8942 46.5565C24.8751 46.5565 25.2915 45.9399 25.2915 44.9791V40.0225H25.88V45.0311H25.872Z" fill="white"/>
<path d="M23.8861 47.2652C22.5409 47.2652 21.7041 46.4084 21.7041 45.0311V39.8223H22.689V44.979C22.689 45.9079 23.0814 46.3563 23.8861 46.3563C24.6909 46.3563 25.0832 45.9039 25.0832 44.979V39.8223H26.0721V45.0311C26.0721 46.4084 25.2354 47.2652 23.8861 47.2652ZM22.1045 40.2226V45.0311C22.1045 46.1962 22.7531 46.8648 23.8861 46.8648C25.0032 46.8648 25.6678 46.1802 25.6678 45.0311V40.2226H25.4796V44.979C25.4796 46.1241 24.9111 46.7567 23.8821 46.7567C22.8532 46.7567 22.2846 46.1241 22.2846 44.979V40.2226H22.1045Z" fill="white"/>
<path d="M33.607 40.6711L33.2827 41.0154C32.8463 40.599 32.454 40.4068 31.8975 40.4068C31.1688 40.4068 30.6843 40.9033 30.6843 41.5919C30.6843 42.2805 31.0086 42.6329 32.0696 43.0172C33.1626 43.4216 33.7992 43.906 33.7992 45.0591C33.7992 46.1802 32.9985 47.061 31.7854 47.061C30.9446 47.061 30.348 46.7287 29.8516 46.1922L30.1839 45.8478C30.6203 46.2722 31.0847 46.5645 31.7733 46.5645C32.6141 46.5645 33.1907 45.976 33.1907 45.0751C33.1907 44.2664 32.8463 43.89 31.7934 43.4977C30.5882 43.0613 30.0838 42.5368 30.0838 41.6039C30.0838 40.663 30.8205 39.9023 31.8854 39.9023C32.6582 39.9104 33.1546 40.1946 33.607 40.6711Z" fill="white"/>
<path d="M31.7894 47.2649C30.9606 47.2649 30.3 46.9686 29.7115 46.332L29.5793 46.1919L30.1839 45.5673L30.328 45.7074C30.8085 46.1759 31.2289 46.368 31.7774 46.368C32.5181 46.368 32.9945 45.8636 32.9945 45.0828C32.9945 44.3702 32.7102 44.0619 31.7293 43.6936C30.4241 43.2211 29.8916 42.6206 29.8916 41.6156C29.8916 40.5306 30.7524 39.7139 31.8935 39.7139C32.6502 39.7139 33.2067 39.9581 33.7592 40.5346L33.8913 40.6708L33.2988 41.2993L33.1547 41.1592C32.7383 40.7628 32.3859 40.6067 31.9055 40.6067C31.3009 40.6067 30.8926 41.0031 30.8926 41.5916C30.8926 42.1241 31.0807 42.4444 32.1457 42.8288C33.2628 43.2411 34.0074 43.7816 34.0074 45.0588C33.9994 46.336 33.0706 47.2649 31.7894 47.2649ZM30.1359 46.1919C30.6083 46.6483 31.1408 46.8605 31.7894 46.8605C32.8584 46.8605 33.6031 46.1198 33.6031 45.0588C33.6031 44.0018 33.0185 43.5774 32.0016 43.2011C30.8806 42.7967 30.4842 42.3723 30.4842 41.5876C30.4842 40.7708 31.0647 40.2023 31.8975 40.2023C32.426 40.2023 32.8384 40.3585 33.2708 40.7308L33.3268 40.6708C32.8984 40.2704 32.47 40.1062 31.8855 40.1062C30.9726 40.1062 30.284 40.7508 30.284 41.6076C30.284 42.4324 30.7124 42.8968 31.8615 43.3132C33.0065 43.7416 33.3909 44.186 33.3909 45.0788C33.3909 46.0878 32.7423 46.7644 31.7734 46.7644C31.0487 46.7644 30.5643 46.4601 30.1919 46.1278L30.1359 46.1919Z" fill="white"/>
<path d="M38.6158 46.9529H38.0272V40.0225H38.6158V46.9529Z" fill="white"/>
<path d="M38.8159 47.1531H37.827V39.8223H38.8159V47.1531ZM38.2274 46.7527H38.4156V40.2226H38.2274V46.7527Z" fill="white"/>
<path d="M45.1378 46.9529H44.4612L42.5394 40.0225H43.136L44.8055 46.3443L46.4631 40.0225H47.0516L45.1378 46.9529Z" fill="white"/>
<path d="M45.294 47.1531H44.3131L42.2792 39.8223H43.2921L44.8055 45.5596L46.3109 39.8223H47.3158L45.294 47.1531ZM44.9056 46.7527H44.9857L46.7873 40.2226H46.6192L44.9056 46.7527ZM44.6133 46.7527H44.7054L42.9838 40.2226H42.8037L44.6133 46.7527Z" fill="white"/>
<path d="M53.982 40.5069H51.5638V43.1173H53.6577V43.6018H51.5638V46.4644H54.1021V46.9489H50.9752V40.0225H54.0501L53.982 40.5069Z" fill="white"/>
<path d="M54.3023 47.1531H50.775V39.8223H54.2823L54.1542 40.7071H51.7639V42.9171H53.8579V43.802H51.7639V46.2642H54.3023V47.1531ZM51.1754 46.7527H53.9019V46.6686H51.3636V43.4056H53.4575V43.3215H51.3636V40.3067H53.8098L53.8218 40.2226H51.1794V46.7527H51.1754Z" fill="white"/>
<path d="M66.8659 43.5537H64.0954V46.9529H63.5068V40.0225H64.0954V43.0573H66.8659V40.0225H67.4545V46.9529H66.8659V43.5537Z" fill="white"/>
<path d="M67.6547 47.1531H66.6658V43.7539H64.2956V47.1531H63.3066V39.8223H64.2956V42.8571H66.6658V39.8223H67.6547V47.1531ZM67.0661 46.7527H67.2543V40.2226H67.0661V43.2574H63.8952V40.2226H63.707V46.7527H63.8952V43.3535H67.0661V46.7527Z" fill="white"/>
<path d="M72.7514 46.9529H72.1628V40.0225H72.7514V46.9529Z" fill="white"/>
<path d="M72.9516 47.1531H71.9626V39.8223H72.9516V47.1531ZM72.367 46.7527H72.5552V40.2226H72.367V46.7527Z" fill="white"/>
<path d="M81.2713 40.5989L80.939 40.9432C80.5146 40.5789 80.1503 40.4067 79.6138 40.4067C78.6729 40.4067 77.712 41.2355 77.712 43.4615C77.712 45.6275 78.4287 46.5684 79.5817 46.5684C80.0662 46.5684 80.4425 46.4363 80.7949 46.2041V43.7138H79.6618L79.5897 43.2293H81.3714V46.4964C80.8549 46.8407 80.2504 47.0609 79.5817 47.0609C78.0643 47.0609 77.0914 45.8558 77.0914 43.4575C77.0914 41.0713 78.3166 39.9062 79.6098 39.9062C80.3184 39.9103 80.7869 40.1425 81.2713 40.5989Z" fill="white"/>
<path d="M79.5817 47.265C77.8721 47.265 76.8912 45.8797 76.8912 43.4614C76.8912 40.871 78.2565 39.71 79.6097 39.71C80.3224 39.71 80.8429 39.9262 81.4074 40.4547L81.5556 40.5948L80.947 41.2194L80.8029 41.0952C80.3865 40.7389 80.0662 40.6068 79.6097 40.6068C78.789 40.6068 77.9082 41.3555 77.9082 43.4614C77.9082 45.3912 78.4687 46.3681 79.5777 46.3681C79.9581 46.3681 80.2744 46.284 80.5907 46.0919V43.9139H79.4856L79.3575 43.029H81.5716V46.6043L81.4835 46.6644C80.8869 47.0608 80.2463 47.265 79.5817 47.265ZM79.6097 40.1103C78.4567 40.1103 77.2916 41.1473 77.2916 43.4614C77.2916 45.6555 78.1044 46.8646 79.5817 46.8646C80.1342 46.8646 80.6667 46.7044 81.1712 46.3881V43.4294H79.8219L79.834 43.5135H80.995V46.3121L80.903 46.3721C80.4906 46.6444 80.0702 46.7685 79.5777 46.7685C78.6328 46.7685 77.5078 46.196 77.5078 43.4614C77.5078 41.0592 78.5928 40.2064 79.6097 40.2064C80.1102 40.2064 80.4906 40.3385 80.919 40.6709L80.979 40.6108C80.5546 40.2505 80.1543 40.1103 79.6097 40.1103Z" fill="white"/>
<path d="M89.0785 43.5537H86.3079V46.9529H85.7194V40.0225H86.3079V43.0573H89.0785V40.0225H89.667V46.9529H89.0785V43.5537Z" fill="white"/>
<path d="M89.8672 47.1531H88.8783V43.7539H86.5081V47.1531H85.5192V39.8223H86.5081V42.8571H88.8783V39.8223H89.8672V47.1531ZM89.2786 46.7527H89.4668V40.2226H89.2786V43.2574H86.1077V40.2226H85.9195V46.7527H86.1077V43.3535H89.2786V46.7527Z" fill="white"/>
<path d="M94.035 43.085H96.3612V43.5694H94.035V43.085Z" fill="white"/>
<path d="M96.5614 43.7735H93.8348V42.8887H96.5614V43.7735ZM94.2352 43.3731H96.161V43.289H94.2352V43.3731Z" fill="white"/>
<path d="M103.736 40.5069H101.318V43.1173H103.412V43.6018H101.318V46.4644H103.856V46.9489H100.729V40.0225H103.804L103.736 40.5069Z" fill="white"/>
<path d="M104.056 47.1531H100.529V39.8223H104.036L103.908 40.7071H101.518V42.9171H103.612V43.802H101.518V46.2642H104.056V47.1531ZM100.929 46.7527H103.656V46.6686H101.118V43.4056H103.212V43.3215H101.118V40.3067H103.564L103.576 40.2226H100.933V46.7527H100.929Z" fill="white"/>
<path d="M111.992 46.9529H111.223L108.492 40.6791C108.533 41.1435 108.573 41.7841 108.573 42.9772V46.9529H108.024V40.0225H108.793L111.515 46.3043C111.495 46 111.435 45.1592 111.435 44.3024V40.0225H111.992V46.9529Z" fill="white"/>
<path d="M111.792 47.4449L111.663 47.1526H111.091L108.757 41.7877C108.769 42.112 108.773 42.5003 108.773 42.9768V47.1526H107.824V39.8219H108.212L108.184 39.4775L108.332 39.8219H108.921L111.247 45.1948C111.235 44.9146 111.227 44.6103 111.227 44.302V39.8219H112.184V47.1526H111.763L111.792 47.4449ZM111.743 46.7523H111.788V40.2222H111.631V44.302C111.631 45.0947 111.683 45.8835 111.707 46.2198L111.743 46.7523ZM111.351 46.7523H111.487L108.661 40.2222H108.508L111.351 46.7523ZM108.224 46.7523H108.372V42.9768C108.372 41.7877 108.332 41.1591 108.292 40.6987L108.252 40.2262H108.228V46.7523H108.224Z" fill="white"/>
<path d="M120.72 43.4296C120.72 46.3123 119.282 46.9489 118.017 46.9489H116.7V40.0225H117.913C119.335 40.0225 120.72 40.567 120.72 43.4296ZM117.289 40.5069V46.4644H118.049C119.082 46.4644 120.103 45.9399 120.103 43.4296C120.103 40.8712 119.03 40.5069 117.997 40.5069H117.289Z" fill="white"/>
<path d="M118.017 47.1531H116.5V39.8223H117.913C119.935 39.8223 120.916 41.0034 120.916 43.4336C120.92 46.5085 119.343 47.1531 118.017 47.1531ZM116.904 46.7527H118.021C119.683 46.7527 120.524 45.6356 120.524 43.4336C120.524 40.591 119.134 40.2226 117.921 40.2226H116.908V46.7527H116.904ZM118.049 46.6646H117.088V40.3067H117.997C119.07 40.3067 120.303 40.663 120.303 43.4296C120.303 45.5796 119.543 46.6646 118.049 46.6646ZM117.489 46.2642H118.049C118.846 46.2642 119.903 45.972 119.903 43.4296C119.903 41.0354 118.986 40.7071 117.997 40.7071H117.489V46.2642Z" fill="white"/>
<path d="M130.893 46.9529H130.305V40.0225H130.893V46.9529ZM131.582 43.2094L134.192 46.9529H133.524L130.925 43.2414L133.404 40.0225H134.04L131.582 43.2094Z" fill="white"/>
<path d="M134.577 47.1531H133.42L131.093 43.83V47.1531H130.104V39.8223H131.093V42.6929L133.303 39.8223H134.449L131.83 43.2134L134.577 47.1531ZM133.628 46.7527H133.808L131.334 43.2054L133.632 40.2226H133.5L131.169 43.2454L133.628 46.7527ZM130.509 46.7527H130.697V40.2226H130.509V46.7527Z" fill="white"/>
<path d="M142.184 43.4935C142.184 45.8597 141.231 47.0648 139.733 47.0648C138.268 47.0648 137.275 45.8997 137.275 43.5015C137.275 41.1233 138.276 39.9102 139.733 39.9102C141.203 39.9102 142.184 41.0632 142.184 43.4935ZM137.892 43.5015C137.892 45.6675 138.64 46.5683 139.733 46.5683C140.878 46.5683 141.563 45.6675 141.563 43.4935C141.563 41.3075 140.854 40.4066 139.733 40.4066C138.62 40.4066 137.892 41.3155 137.892 43.5015Z" fill="white"/>
<path d="M139.733 47.265C138.044 47.265 137.075 45.8957 137.075 43.5015C137.075 41.1273 138.068 39.71 139.733 39.71C141.415 39.71 142.384 41.0872 142.384 43.4935C142.384 45.8877 141.419 47.265 139.733 47.265ZM139.733 40.1103C138.32 40.1103 137.475 41.3795 137.475 43.5015C137.475 45.6395 138.3 46.8646 139.733 46.8646C141.183 46.8646 141.984 45.6675 141.984 43.4935C141.984 41.3114 141.183 40.1103 139.733 40.1103ZM139.733 46.7685C138.973 46.7685 137.692 46.3441 137.692 43.5015C137.692 40.779 138.801 40.2064 139.733 40.2064C140.658 40.2064 141.763 40.7749 141.763 43.4935C141.767 45.6635 141.083 46.7685 139.733 46.7685ZM139.733 40.6068C138.644 40.6068 138.092 41.5797 138.092 43.5015C138.092 44.8067 138.376 46.3681 139.733 46.3681C140.83 46.3681 141.363 45.4273 141.363 43.4935C141.367 41.5757 140.818 40.6068 139.733 40.6068Z" fill="white"/>
<path d="M151.68 46.953H151.124L150.852 43.6259C150.76 42.5129 150.679 41.2397 150.647 40.5991L149.182 46.1322H148.626L147.096 40.5871C147.084 41.2757 146.996 42.5409 146.916 43.6019L146.672 46.949H146.115L146.684 40.0186H147.472L148.91 45.4396L150.307 40.0186H151.108L151.68 46.953Z" fill="white"/>
<path d="M151.901 47.1529H150.94L150.651 43.6417C150.603 43.0611 150.559 42.4245 150.519 41.86L149.338 46.3322H148.473L147.24 41.856C147.204 42.4085 147.16 43.0291 147.116 43.6177L146.86 47.1529H145.899L146.5 39.8221H146.912L146.92 39.1855L147.096 39.8221H147.629L148.91 44.6546L150.155 39.8221H150.651L150.792 39.2977L150.816 39.8221H151.292L151.901 47.1529ZM151.308 46.7526H151.464L150.92 40.2225H150.832L150.848 40.5908C150.88 41.2394 150.96 42.5166 151.048 43.6096L151.308 46.7526ZM146.335 46.7526H146.488L146.716 43.5896C146.8 42.4806 146.888 41.2555 146.896 40.5868L146.9 40.2225H146.864L146.335 46.7526ZM148.99 45.9318H149.026L150.539 40.2225H150.459L148.99 45.9318ZM148.778 45.9318H148.83L147.316 40.2225H147.204L148.778 45.9318Z" fill="white"/>
<path d="M159.732 42.0964C159.732 43.6138 158.799 44.2424 157.282 44.2424H156.653V46.9529H156.064V40.0225H157.29C158.911 40.0225 159.732 40.6911 159.732 42.0964ZM159.123 42.1044C159.123 40.9513 158.527 40.4949 157.294 40.4949H156.657V43.7539H157.286C158.459 43.7539 159.123 43.3616 159.123 42.1044Z" fill="white"/>
<path d="M156.857 47.1531H155.868V39.8223H157.294C159.043 39.8223 159.932 40.587 159.932 42.0964C159.932 43.1654 159.472 44.4425 157.282 44.4425H156.853V47.1531H156.857ZM156.269 46.7527H156.457V44.0422H157.286C158.799 44.0422 159.536 43.4056 159.536 42.0964C159.536 40.8192 158.823 40.2226 157.298 40.2226H156.273V46.7527H156.269ZM157.286 43.9541H156.457V40.2947H157.294C158.679 40.2947 159.323 40.8712 159.323 42.1044C159.327 43.7619 158.162 43.9541 157.286 43.9541ZM156.857 43.5537H157.286C158.467 43.5537 158.927 43.1493 158.927 42.1044C158.927 41.1035 158.455 40.6951 157.298 40.6951H156.861V43.5537H156.857Z" fill="white"/>
<path d="M168.38 43.4935C168.38 45.8597 167.427 47.0648 165.93 47.0648C164.464 47.0648 163.471 45.8997 163.471 43.5015C163.471 41.1233 164.472 39.9102 165.93 39.9102C167.399 39.9102 168.38 41.0632 168.38 43.4935ZM164.092 43.5015C164.092 45.6675 164.841 46.5683 165.934 46.5683C167.079 46.5683 167.763 45.6675 167.763 43.4935C167.763 41.3075 167.055 40.4066 165.934 40.4066C164.821 40.4066 164.092 41.3155 164.092 43.5015Z" fill="white"/>
<path d="M165.934 47.265C164.244 47.265 163.275 45.8957 163.275 43.5015C163.275 41.1273 164.268 39.71 165.934 39.71C167.615 39.71 168.584 41.0872 168.584 43.4935C168.58 45.8877 167.615 47.265 165.934 47.265ZM165.934 40.1103C164.52 40.1103 163.676 41.3795 163.676 43.5015C163.676 45.6395 164.5 46.8646 165.934 46.8646C167.383 46.8646 168.184 45.6675 168.184 43.4935C168.18 41.3114 167.383 40.1103 165.934 40.1103ZM165.934 46.7685C165.173 46.7685 163.892 46.3441 163.892 43.5015C163.892 40.779 165.001 40.2064 165.934 40.2064C166.858 40.2064 167.963 40.7749 167.963 43.4935C167.963 45.6635 167.279 46.7685 165.934 46.7685ZM165.934 40.6068C164.845 40.6068 164.292 41.5797 164.292 43.5015C164.292 44.8067 164.576 46.3681 165.934 46.3681C167.031 46.3681 167.563 45.4273 167.563 43.4935C167.563 41.5757 167.015 40.6068 165.934 40.6068Z" fill="white"/>
<path d="M176.684 46.9529H175.915L173.184 40.6791C173.224 41.1435 173.264 41.7841 173.264 42.9772V46.9529H172.716V40.0225H173.485L176.207 46.3043C176.187 46 176.127 45.1592 176.127 44.3024V40.0225H176.684V46.9529Z" fill="white"/>
<path d="M176.483 47.4449L176.355 47.1526H175.783L173.449 41.7877C173.461 42.112 173.465 42.5003 173.465 42.9768V47.1526H172.516V39.8219H172.908L172.88 39.4775L173.032 39.8219H173.621L175.947 45.1948C175.935 44.9146 175.927 44.6103 175.927 44.302V39.8219H176.884V47.1526H176.463L176.483 47.4449ZM176.439 46.7523H176.483V40.2222H176.327V44.302C176.327 45.0947 176.379 45.8835 176.403 46.2198L176.439 46.7523ZM176.047 46.7523H176.183L173.357 40.2222H173.204L176.047 46.7523ZM172.92 46.7523H173.068V42.9768C173.068 41.7837 173.028 41.1551 172.988 40.6987L172.948 40.2262H172.924V46.7523H172.92Z" fill="white"/>
<path d="M184.403 40.5069H181.985V43.1173H184.078V43.6018H181.985V46.4644H184.523V46.9489H181.396V40.0225H184.471L184.403 40.5069Z" fill="white"/>
<path d="M184.723 47.1531H181.196V39.8223H184.703L184.575 40.7071H182.185V42.9171H184.279V43.802H182.185V46.2642H184.723V47.1531ZM181.596 46.7527H184.323V46.6686H181.784V43.4056H183.878V43.3215H181.784V40.3067H184.231L184.243 40.2226H181.6V46.7527H181.596Z" fill="white"/>
<path d="M192.658 46.9529H191.89L189.159 40.6791C189.199 41.1435 189.239 41.7841 189.239 42.9772V46.9529H188.691V40.0225H189.46L192.182 46.3043C192.162 46 192.102 45.1592 192.102 44.3024V40.0225H192.658V46.9529Z" fill="white"/>
<path d="M192.458 47.4489L192.33 47.1526H191.758L189.419 41.7877C189.431 42.112 189.435 42.5003 189.435 42.9768V47.1526H188.487V39.8219H188.879L188.851 39.4775L188.999 39.8219H189.588L191.914 45.1948C191.902 44.9146 191.894 44.6103 191.894 44.302V39.8219H192.851V47.1526H192.434L192.458 47.4489ZM192.41 46.7523H192.454V40.2222H192.298V44.302C192.298 45.1027 192.35 45.8955 192.374 46.2318L192.41 46.7523ZM192.018 46.7523H192.154L189.323 40.2222H189.171L192.018 46.7523ZM188.891 46.7523H189.039V42.9768C189.039 41.7837 188.999 41.1551 188.959 40.6987L188.919 40.2262H188.895V46.7523H188.891Z" fill="white"/>
<path d="M200.618 40.5269H198.888V46.9529H198.3V40.5269H196.558V40.0225H200.678L200.618 40.5269Z" fill="white"/>
<path d="M199.088 47.1531H198.099V40.7271H196.358V39.8223H200.902L200.794 40.7271H199.088V47.1531ZM198.5 46.7527H198.688V40.3267H200.442L200.454 40.2226H196.762V40.3267H198.504V46.7527H198.5Z" fill="white"/>
<path d="M207.544 40.5069H205.126V43.1173H207.22V43.6018H205.126V46.4644H207.664V46.9489H204.537V40.0225H207.612L207.544 40.5069Z" fill="white"/>
<path d="M207.868 47.1531H204.341V39.8223H207.848L207.72 40.7071H205.33V42.9171H207.424V43.802H205.33V46.2642H207.868V47.1531ZM204.742 46.7527H207.468V46.6686H204.93V43.4056H207.024V43.3215H204.93V40.3067H207.376L207.388 40.2226H204.746V46.7527H204.742Z" fill="white"/>
<path d="M215.8 46.9529H215.031L212.301 40.6791C212.341 41.1435 212.381 41.7841 212.381 42.9772V46.9529H211.832V40.0225H212.601L215.323 46.3043C215.303 46 215.243 45.1592 215.243 44.3024V40.0225H215.8V46.9529Z" fill="white"/>
<path d="M215.6 47.445L215.471 47.1527H214.899L212.565 41.7878C212.577 42.1121 212.581 42.5004 212.581 42.9769V47.1527H211.632V39.822H212.02L211.988 39.4736L212.14 39.822H212.729L215.055 45.1949C215.043 44.9147 215.035 44.6104 215.035 44.3021V39.822H215.992V47.1527H215.572L215.6 47.445ZM215.556 46.7524H215.6V40.2223H215.443V44.3021C215.443 45.0948 215.496 45.8836 215.52 46.2199L215.556 46.7524ZM215.163 46.7524H215.299L212.473 40.2223H212.321L215.163 46.7524ZM212.032 46.7524H212.18V42.9769C212.18 41.7798 212.14 41.1552 212.1 40.6988L212.06 40.2223H212.036V46.7524H212.032Z" fill="white"/>
<path d="M20.1507 6.16698C26.933 6.16698 32.4501 11.6841 32.4501 18.4664C32.4501 25.2486 26.933 30.7658 20.1507 30.7658C13.3684 30.7658 7.8513 25.2486 7.8513 18.4664C7.8513 11.6841 13.3684 6.16698 20.1507 6.16698ZM20.1507 3.9209C12.1153 3.9209 5.60522 10.4349 5.60522 18.4664C5.60522 26.4978 12.1153 33.0118 20.1507 33.0118C28.1861 33.0118 34.6962 26.5018 34.6962 18.4664C34.6962 10.4309 28.1821 3.9209 20.1507 3.9209Z" fill="white"/>
<path d="M20.7913 20.7693C22.0627 20.7693 23.0934 19.7386 23.0934 18.4672C23.0934 17.1957 22.0627 16.165 20.7913 16.165C19.5198 16.165 18.4891 17.1957 18.4891 18.4672C18.4891 19.7386 19.5198 20.7693 20.7913 20.7693Z" fill="white"/>
<path d="M20.7912 20.7968C19.5061 20.7968 18.4651 19.7519 18.4651 18.4707C18.4651 17.1895 19.5101 16.1445 20.7912 16.1445C22.0724 16.1445 23.1174 17.1895 23.1174 18.4707C23.1174 19.7519 22.0764 20.7968 20.7912 20.7968ZM20.7912 16.1886C19.5341 16.1886 18.5131 17.2095 18.5131 18.4667C18.5131 19.7238 19.5341 20.7448 20.7912 20.7448C22.0484 20.7448 23.0694 19.7238 23.0694 18.4667C23.0694 17.2095 22.0484 16.1886 20.7912 16.1886Z" fill="white"/>
<path d="M20.7913 22.9783C18.305 22.9783 16.2831 20.9564 16.2831 18.4701C16.2831 15.9838 18.305 13.9619 20.7913 13.9619C23.2776 13.9619 25.2994 15.9838 25.2994 18.4701C25.2994 20.9524 23.2776 22.9783 20.7913 22.9783ZM20.7913 14.5985C18.6573 14.5985 16.9237 16.3321 16.9237 18.4661C16.9237 20.6001 18.6573 22.3337 20.7913 22.3337C22.9252 22.3337 24.6588 20.6001 24.6588 18.4661C24.6588 16.3321 22.9252 14.5985 20.7913 14.5985Z" fill="white"/>
<path d="M145.403 23.3432V21.9539H153.082C153.834 21.9539 154.187 21.6456 154.187 21.0851V19.896C154.187 19.3355 153.834 19.0272 153.082 19.0272H147.885C145.879 19.0272 145.11 18.1063 145.11 16.7571V16.2086C145.11 14.8593 145.875 13.9385 147.885 13.9385H155.364V15.3278H147.885C147.132 15.3278 146.78 15.636 146.78 16.1966V16.7691C146.78 17.3296 147.132 17.6379 147.885 17.6379H153.082C155.092 17.6379 155.856 18.5588 155.856 19.908V21.0691C155.856 22.4183 155.092 23.3392 153.082 23.3392H145.403V23.3432Z" fill="white"/>
<path d="M161.041 23.343V15.3356H156.409V13.9463H167.215V15.3356H162.711V23.343H161.041Z" fill="white"/>
<path d="M171.07 23.343C169.06 23.343 168.296 22.4221 168.296 21.0729V13.9463H169.965V21.0889C169.965 21.6494 170.318 21.9577 171.07 21.9577H176.555C177.308 21.9577 177.66 21.6494 177.66 21.0889V13.9463H179.33V21.0729C179.33 22.4221 178.918 23.343 176.908 23.343H171.07Z" fill="white"/>
<path d="M180.92 23.343V13.9463H189.015C191.513 13.9463 192.278 14.8671 192.278 16.7209V20.6565C192.278 22.4181 191.513 23.339 189.015 23.339H180.92V23.343ZM190.609 16.7209C190.609 15.6399 190.256 15.3316 189.015 15.3316H182.589V21.9537H189.015C190.256 21.9537 190.609 21.6454 190.609 20.6445V16.7209Z" fill="white"/>
<path d="M193.911 23.343V13.9463H195.581V23.343H193.911Z" fill="white"/>
<path d="M199.985 23.343C197.975 23.343 197.211 22.4221 197.211 21.0729V16.2164C197.211 14.8671 197.975 13.9463 199.985 13.9463H205.819C207.824 13.9463 208.593 14.8671 208.593 16.2164V21.0769C208.593 22.4261 207.828 23.347 205.819 23.347H199.985V23.343ZM206.924 16.2004C206.924 15.6399 206.571 15.3316 205.819 15.3316H199.985C199.232 15.3316 198.88 15.6399 198.88 16.2004V21.0849C198.88 21.6454 199.232 21.9537 199.985 21.9537H205.819C206.571 21.9537 206.924 21.6454 206.924 21.0849V16.2004Z" fill="white"/>
<path d="M56.3963 23.343L54.3263 19.1511H49.67V23.343H48.0005V13.9463H55.5034C57.5133 13.9463 58.278 14.8671 58.278 16.2164V16.885C58.278 18.0981 57.6614 18.9669 56.096 19.1271L58.1779 23.347H56.3963V23.343ZM56.6085 16.2004C56.6085 15.6399 56.2561 15.3316 55.5034 15.3316H49.67V17.7618H55.5034C56.2561 17.7618 56.6085 17.4535 56.6085 16.893V16.2004Z" fill="white"/>
<path d="M59.6233 23.343V13.9463H68.7077V15.3356H61.2928V17.6858H68.3314V19.075H61.2928V21.9577H68.7077V23.347H59.6233V23.343Z" fill="white"/>
<path d="M71.7946 19.4714V23.343H70.125V13.9463H79.2094V15.3356H71.7946V18.0861H78.7089V19.4754H71.7946V19.4714Z" fill="white"/>
<path d="M80.1182 23.343V13.9463H89.2026V15.3356H81.7877V17.6858H88.8262V19.075H81.7877V21.9577H89.2026V23.347H80.1182V23.343Z" fill="white"/>
<path d="M99.0158 23.343L96.9459 19.1511H92.2895V23.343H90.62V13.9463H98.1229C100.133 13.9463 100.898 14.8671 100.898 16.2164V16.885C100.898 18.0981 100.281 18.9669 98.7155 19.1271L100.797 23.347H99.0158V23.343ZM99.232 16.2004C99.232 15.6399 98.8796 15.3316 98.1269 15.3316H92.2935V17.7618H98.1269C98.8796 17.7618 99.232 17.4535 99.232 16.893V16.2004Z" fill="white"/>
<path d="M102.243 23.343V13.9463H111.327V15.3356H103.912V17.6858H110.951V19.075H103.912V21.9577H111.327V23.347H102.243V23.343Z" fill="white"/>
<path d="M123.626 23.343L114.202 16.0282V23.343H112.744V13.9463H114.186L122.982 20.9288V13.9463H124.439V23.343H123.626Z" fill="white"/>
<path d="M125.865 23.343V22.1419L134.801 15.4677H125.865V13.9463H137.736V15.1474L128.763 21.8216H137.736V23.343H125.865Z" fill="white"/>
<path d="M39.6367 13.7819C41.1956 13.7819 42.4593 12.5182 42.4593 10.9593C42.4593 9.40045 41.1956 8.13672 39.6367 8.13672C38.0778 8.13672 36.8141 9.40045 36.8141 10.9593C36.8141 12.5182 38.0778 13.7819 39.6367 13.7819Z" fill="#EC1C24"/>
<path d="M214.198 2.15129V34.9817H142.132V2.15129H214.198ZM215.8 0.549805H140.53V36.5832H215.8V0.549805Z" fill="white"/>
</g>
<defs>
<clipPath id="clip0_437_7075">
<rect width="216" height="46.8994" fill="white" transform="translate(0 0.549805)"/>
</clipPath>
</defs>
</svg>
